<svg width="25" height="17" viewBox="0 0 25 17" fill="none" xmlns="http://www.w3.org/2000/svg">
<path d="M1.20264 0C0.539586 0 0 0.539586 0 1.20264V15.6344C0 16.2974 0.539586 16.837 1.20264 16.837H22.8502C23.5133 16.837 24.0529 16.2974 24.0529 15.6344V1.20264C24.0529 0.539586 23.5133 0 22.8502 0H1.20264ZM1.20264 0.801762H22.8502C23.0711 0.801762 23.2511 0.981757 23.2511 1.20264V4.13408L12.5189 9.7613C12.2054 9.90281 11.8458 9.90333 11.5535 9.77304L0.801762 4.16619V1.20264C0.801762 0.981757 0.981757 0.801762 1.20264 0.801762ZM23.2511 5.0392V15.6344C23.2511 15.8552 23.0711 16.0352 22.8502 16.0352H1.20264C0.981757 16.0352 0.801762 15.8552 0.801762 15.6344V5.07052L11.2043 10.4942C11.4621 10.6096 11.7384 10.668 12.0178 10.668C12.3044 10.668 12.5947 10.6063 12.8705 10.4816L23.2511 5.0392ZM2.0044 13.63C1.78312 13.63 1.60352 13.8095 1.60352 14.0308V14.8326C1.60352 15.0539 1.78312 15.2335 2.0044 15.2335C2.22569 15.2335 2.40529 15.0539 2.40529 14.8326V14.0308C2.40529 13.8095 2.22569 13.63 2.0044 13.63ZM4.00881 13.63C3.78752 13.63 3.60793 13.8095 3.60793 14.0308V14.8326C3.60793 15.0539 3.78752 15.2335 4.00881 15.2335C4.2301 15.2335 4.40969 15.0539 4.40969 14.8326V14.0308C4.40969 13.8095 4.2301 13.63 4.00881 13.63ZM6.01321 13.63C5.79193 13.63 5.61233 13.8095 5.61233 14.0308V14.8326C5.61233 15.0539 5.79193 15.2335 6.01321 15.2335C6.2345 15.2335 6.41409 15.0539 6.41409 14.8326V14.0308C6.41409 13.8095 6.2345 13.63 6.01321 13.63ZM8.01762 13.63C7.79633 13.63 7.61674 13.8095 7.61674 14.0308V14.8326C7.61674 15.0539 7.79633 15.2335 8.01762 15.2335C8.2389 15.2335 8.4185 15.0539 8.4185 14.8326V14.0308C8.4185 13.8095 8.2389 13.63 8.01762 13.63ZM10.022 13.63C9.80074 13.63 9.62114 13.8095 9.62114 14.0308V14.8326C9.62114 15.0539 9.80074 15.2335 10.022 15.2335C10.2433 15.2335 10.4229 15.0539 10.4229 14.8326V14.0308C10.4229 13.8095 10.2433 13.63 10.022 13.63ZM12.0264 13.63C11.8051 13.63 11.6255 13.8095 11.6255 14.0308V14.8326C11.6255 15.0539 11.8051 15.2335 12.0264 15.2335C12.2477 15.2335 12.4273 15.0539 12.4273 14.8326V14.0308C12.4273 13.8095 12.2477 13.63 12.0264 13.63ZM14.0308 13.63C13.8095 13.63 13.63 13.8095 13.63 14.0308V14.8326C13.63 15.0539 13.8095 15.2335 14.0308 15.2335C14.2521 15.2335 14.4317 15.0539 14.4317 14.8326V14.0308C14.4317 13.8095 14.2521 13.63 14.0308 13.63ZM16.0352 13.63C15.814 13.63 15.6344 13.8095 15.6344 14.0308V14.8326C15.6344 15.0539 15.814 15.2335 16.0352 15.2335C16.2565 15.2335 16.4361 15.0539 16.4361 14.8326V14.0308C16.4361 13.8095 16.2565 13.63 16.0352 13.63ZM18.0396 13.63C17.8184 13.63 17.6388 13.8095 17.6388 14.0308V14.8326C17.6388 15.0539 17.8184 15.2335 18.0396 15.2335C18.2609 15.2335 18.4405 15.0539 18.4405 14.8326V14.0308C18.4405 13.8095 18.2609 13.63 18.0396 13.63ZM20.044 13.63C19.8228 13.63 19.6432 13.8095 19.6432 14.0308V14.8326C19.6432 15.0539 19.8228 15.2335 20.044 15.2335C20.2653 15.2335 20.4449 15.0539 20.4449 14.8326V14.0308C20.4449 13.8095 20.2653 13.63 20.044 13.63ZM22.0485 13.63C21.8272 13.63 21.6476 13.8095 21.6476 14.0308V14.8326C21.6476 15.0539 21.8272 15.2335 22.0485 15.2335C22.2697 15.2335 22.4493 15.0539 22.4493 14.8326V14.0308C22.4493 13.8095 22.2697 13.63 22.0485 13.63Z" fill="#666666"/>
</svg>
