<svg width="24" height="25" viewBox="0 0 24 25" fill="none" xmlns="http://www.w3.org/2000/svg">
<path d="M10.022 0C5.82217 0 2.40529 3.41688 2.40529 7.61674V9.62114H1.20264C0.541816 9.62114 0 10.163 0 10.8238V22.8502C0 23.511 0.541816 24.0529 1.20264 24.0529H19.6432C20.304 24.0529 20.8458 23.511 20.8458 22.8502V20.5451C22.49 19.9031 23.652 18.3043 23.652 16.4361C23.652 14.568 22.49 12.9691 20.8458 12.3271V10.8238C20.8458 10.163 20.304 9.62114 19.6432 9.62114H18.4405V7.61674C18.4405 3.41688 15.0236 0 10.8238 0H10.022ZM10.022 0.801762H10.8238C10.96 0.801762 11.0916 0.814289 11.2247 0.822119V2.42564C11.0916 2.41468 10.96 2.40529 10.8238 2.40529H10.022C9.88579 2.40529 9.75425 2.41468 9.62114 2.42564V0.822119C9.75425 0.814289 9.88579 0.801762 10.022 0.801762ZM8.81938 0.91451V2.55092C6.52528 3.09587 4.81057 5.15821 4.81057 7.61674V9.62114H3.20705V7.61674C3.20705 4.27032 5.63426 1.48451 8.81938 0.91451ZM12.0264 0.91451C15.2116 1.48451 17.6388 4.27032 17.6388 7.61674V9.62114H16.0352V7.61674C16.0352 5.15821 14.3205 3.09587 12.0264 2.55092V0.91451ZM10.022 3.20705H10.8238C13.2557 3.20705 15.2335 5.18483 15.2335 7.61674V9.62114H5.61233V7.61674C5.61233 5.18483 7.59012 3.20705 10.022 3.20705ZM1.20264 10.4229H19.6432C19.864 10.4229 20.044 10.603 20.044 10.8238V12.0985C19.7841 12.0499 19.5148 12.0264 19.2423 12.0264C16.8088 12.0264 14.8326 14.0026 14.8326 16.4361C14.8326 18.8696 16.8088 20.8458 19.2423 20.8458C19.5148 20.8458 19.7841 20.8223 20.044 20.7738V22.8502C20.044 23.071 19.864 23.2511 19.6432 23.2511H1.20264C0.981845 23.2511 0.801762 23.071 0.801762 22.8502V10.8238C0.801762 10.603 0.981845 10.4229 1.20264 10.4229ZM19.2423 12.8282C19.5195 12.8282 19.7872 12.8611 20.044 12.9159C20.3244 12.9801 20.5937 13.0803 20.8458 13.204C22.0328 13.7944 22.8502 15.0205 22.8502 16.4361C22.8502 17.8517 22.0328 19.0779 20.8458 19.6682C20.5937 19.7919 20.3244 19.8922 20.044 19.9564C19.7872 20.0112 19.5195 20.044 19.2423 20.044C17.2535 20.044 15.6344 18.4249 15.6344 16.4361C15.6344 14.4474 17.2535 12.8282 19.2423 12.8282ZM20.8458 14.9657C20.7425 14.9657 20.6407 15.0048 20.5624 15.0831L18.7083 16.9388L17.9222 16.1527C17.7656 15.9961 17.5135 15.9961 17.3569 16.1527C17.1987 16.3093 17.1987 16.563 17.3569 16.7196L18.4249 17.7891C18.5 17.8643 18.6018 17.9065 18.7083 17.9065C18.8148 17.9065 18.9166 17.8643 18.9917 17.7891L21.1292 15.65C21.2858 15.4934 21.2858 15.2413 21.1292 15.0831C21.0509 15.0048 20.9492 14.9657 20.8458 14.9657ZM4.81057 15.2335C4.36741 15.2335 4.00881 15.5921 4.00881 16.0352C4.00881 16.4784 4.36741 16.837 4.81057 16.837C5.25373 16.837 5.61233 16.4784 5.61233 16.0352C5.61233 15.5921 5.25373 15.2335 4.81057 15.2335ZM8.4185 15.2335C7.97534 15.2335 7.61674 15.5921 7.61674 16.0352C7.61674 16.4784 7.97534 16.837 8.4185 16.837C8.86166 16.837 9.22026 16.4784 9.22026 16.0352C9.22026 15.5921 8.86166 15.2335 8.4185 15.2335ZM12.0264 15.2335C11.5833 15.2335 11.2247 15.5921 11.2247 16.0352C11.2247 16.4784 11.5833 16.837 12.0264 16.837C12.4696 16.837 12.8282 16.4784 12.8282 16.0352C12.8282 15.5921 12.4696 15.2335 12.0264 15.2335ZM2.0044 21.6476C1.78361 21.6476 1.60352 21.8261 1.60352 22.0485C1.60352 22.2708 1.78361 22.4493 2.0044 22.4493H15.6344C15.8552 22.4493 16.0352 22.2708 16.0352 22.0485C16.0352 21.8261 15.8552 21.6476 15.6344 21.6476H2.0044ZM17.2379 21.6476C17.0171 21.6476 16.837 21.8261 16.837 22.0485C16.837 22.2708 17.0171 22.4493 17.2379 22.4493H18.8414C19.0622 22.4493 19.2423 22.2708 19.2423 22.0485C19.2423 21.8261 19.0622 21.6476 18.8414 21.6476H17.2379Z" fill="#666666"/>
</svg>
