<svg width="112" height="112" viewBox="0 0 112 112" fill="none" xmlns="http://www.w3.org/2000/svg">
<path d="M56 108.5C84.9949 108.5 108.5 84.9949 108.5 56C108.5 27.0051 84.9949 3.5 56 3.5C27.0051 3.5 3.5 27.0051 3.5 56C3.5 84.9949 27.0051 108.5 56 108.5Z" fill="#5B93EF"/>
<path d="M73.336 35.396L45.8026 62.9293L35.466 52.5927C31.826 48.9527 25.8993 48.9527 22.2593 52.5927C18.6193 56.2327 18.6193 62.136 22.2593 65.7994L39.1993 82.7393C41.0193 84.5593 43.3993 85.4693 45.8026 85.4693C48.1826 85.4693 50.586 84.5593 52.406 82.7393L86.5426 48.6027C90.1826 44.9627 90.1826 39.0593 86.5426 35.396C82.9026 31.756 76.976 31.756 73.336 35.396Z" fill="white"/>
<path d="M86.5419 41.6033L52.4052 75.74C50.5852 77.56 48.2052 78.47 45.8019 78.47C43.3985 78.47 41.0185 77.56 39.1985 75.74L22.2819 58.8C21.3719 57.89 20.6719 56.84 20.2285 55.6967C18.8752 59.0567 19.5519 63.07 22.2819 65.8L39.2219 82.74C41.0419 84.56 43.4219 85.47 45.8252 85.47C48.2285 85.47 50.6085 84.56 52.4285 82.74L86.5652 48.6033C89.2952 45.8733 89.9719 41.8833 88.6185 38.5C88.1285 39.62 87.4519 40.6933 86.5419 41.6033Z" fill="#D6DCE4"/>
<path d="M56 101.5C28.1867 101.5 5.43667 79.87 3.64 52.5C3.54667 53.6667 3.5 54.8333 3.5 56C3.5 85.0033 26.9967 108.5 56 108.5C85.0033 108.5 108.5 85.0033 108.5 56C108.5 54.8333 108.453 53.6667 108.36 52.5C106.563 79.87 83.8133 101.5 56 101.5Z" fill="#79ACFF"/>
<path d="M55.9994 110.833C25.7593 110.833 1.16602 86.2394 1.16602 55.9994C1.16602 25.7593 25.7593 1.16602 55.9994 1.16602C86.2394 1.16602 110.833 25.7593 110.833 55.9994C110.833 86.2394 86.2394 110.833 55.9994 110.833ZM55.9994 5.83268C28.3493 5.83268 5.83268 28.3493 5.83268 55.9994C5.83268 83.6494 28.3493 106.166 55.9994 106.166C83.6494 106.166 106.166 83.6494 106.166 55.9994C106.166 28.3493 83.6494 5.83268 55.9994 5.83268Z" fill="#404041"/>
<path d="M45.804 87.8039C42.6774 87.8039 39.7607 86.5905 37.544 84.3739L20.6274 67.4339C18.434 65.2405 17.2207 62.3005 17.2207 59.1739C17.2207 56.0472 18.434 53.1305 20.6274 50.9139C22.8207 48.7205 25.7607 47.5072 28.8874 47.5072C32.014 47.5072 34.9307 48.7205 37.1474 50.9372L45.8274 59.6172L71.704 33.7405C73.8974 31.5472 76.8374 30.3105 79.964 30.3105C83.0907 30.3105 86.0074 31.5239 88.224 33.7405C90.4174 35.9339 91.6307 38.8739 91.6307 41.9772C91.6307 45.0805 90.4174 48.0205 88.224 50.2372L54.064 84.3739C51.8474 86.5905 48.9307 87.8039 45.804 87.8039ZM28.864 52.1972C26.9974 52.1972 25.2474 52.9205 23.9174 54.2505C22.5874 55.5805 21.864 57.3305 21.864 59.1972C21.864 61.0639 22.5874 62.8139 23.9174 64.1439L40.8574 81.0839C43.494 83.7205 48.114 83.7205 50.7507 81.0839L84.8874 46.9472C86.2174 45.6172 86.9407 43.8672 86.9407 42.0005C86.9407 40.1339 86.2174 38.3839 84.8874 37.0539C82.2507 34.4172 77.6307 34.4172 74.994 37.0539L45.804 66.2205L33.8107 54.2272C32.504 52.9205 30.754 52.1972 28.864 52.1972Z" fill="#404041"/>
</svg>
